<svg xmlns="http://www.w3.org/2000/svg" xmlns:xlink="http://www.w3.org/1999/xlink" width="1280" zoomAndPan="magnify" viewBox="0 0 960 540.000001" height="720" preserveAspectRatio="xMidYMid meet" version="1.0"><defs><clipPath id="39e3840d1c"><path d="M 806 28 L 823 28 L 823 46 L 806 46 Z M 806 28 " clip-rule="nonzero"/></clipPath><clipPath id="568097e3b6"><path d="M 1045.046875 7.0625 L 752.933594 154.351562 L 608.339844 -132.410156 L 900.449219 -279.703125 Z M 1045.046875 7.0625 " clip-rule="nonzero"/></clipPath><clipPath id="bfafb5e4d9"><path d="M 1045.046875 7.0625 L 752.933594 154.351562 L 608.339844 -132.410156 L 900.449219 -279.703125 Z M 1045.046875 7.0625 " clip-rule="nonzero"/></clipPath><clipPath id="e62fdf08b2"><path d="M 796 22 L 814 22 L 814 40 L 796 40 Z M 796 22 " clip-rule="nonzero"/></clipPath><clipPath id="dd7cb88bbb"><path d="M 1045.046875 7.0625 L 752.933594 154.351562 L 608.339844 -132.410156 L 900.449219 -279.703125 Z M 1045.046875 7.0625 " clip-rule="nonzero"/></clipPath><clipPath id="d0b53ba05c"><path d="M 1045.046875 7.0625 L 752.933594 154.351562 L 608.339844 -132.410156 L 900.449219 -279.703125 Z M 1045.046875 7.0625 " clip-rule="nonzero"/></clipPath><clipPath id="1a6e518972"><path d="M 701 35 L 724 35 L 724 58 L 701 58 Z M 701 35 " clip-rule="nonzero"/></clipPath><clipPath id="bdb400c82a"><path d="M 1045.046875 7.0625 L 752.933594 154.351562 L 608.339844 -132.410156 L 900.449219 -279.703125 Z M 1045.046875 7.0625 " clip-rule="nonzero"/></clipPath><clipPath id="9c7c987b74"><path d="M 1045.046875 7.0625 L 752.933594 154.351562 L 608.339844 -132.410156 L 900.449219 -279.703125 Z M 1045.046875 7.0625 " clip-rule="nonzero"/></clipPath><clipPath id="a217137321"><path d="M 807 24 L 822 24 L 822 39 L 807 39 Z M 807 24 " clip-rule="nonzero"/></clipPath><clipPath id="1a5042136f"><path d="M 1045.046875 7.0625 L 752.933594 154.351562 L 608.339844 -132.410156 L 900.449219 -279.703125 Z M 1045.046875 7.0625 " clip-rule="nonzero"/></clipPath><clipPath id="4a2303048f"><path d="M 1045.046875 7.0625 L 752.933594 154.351562 L 608.339844 -132.410156 L 900.449219 -279.703125 Z M 1045.046875 7.0625 " clip-rule="nonzero"/></clipPath><clipPath id="73101e29b8"><path d="M 865 46 L 872 46 L 872 53 L 865 53 Z M 865 46 " clip-rule="nonzero"/></clipPath><clipPath id="6f7057f0ad"><path d="M 1045.046875 7.0625 L 752.933594 154.351562 L 608.339844 -132.410156 L 900.449219 -279.703125 Z M 1045.046875 7.0625 " clip-rule="nonzero"/></clipPath><clipPath id="f904564f8f"><path d="M 1045.046875 7.0625 L 752.933594 154.351562 L 608.339844 -132.410156 L 900.449219 -279.703125 Z M 1045.046875 7.0625 " clip-rule="nonzero"/></clipPath><clipPath id="cff061c906"><path d="M 796 69 L 803 69 L 803 76 L 796 76 Z M 796 69 " clip-rule="nonzero"/></clipPath><clipPath id="6350c7116e"><path d="M 1045.046875 7.0625 L 752.933594 154.351562 L 608.339844 -132.410156 L 900.449219 -279.703125 Z M 1045.046875 7.0625 " clip-rule="nonzero"/></clipPath><clipPath id="38e9a3369f"><path d="M 1045.046875 7.0625 L 752.933594 154.351562 L 608.339844 -132.410156 L 900.449219 -279.703125 Z M 1045.046875 7.0625 " clip-rule="nonzero"/></clipPath><clipPath id="b0b598cd75"><path d="M 859 20 L 870 20 L 870 30 L 859 30 Z M 859 20 " clip-rule="nonzero"/></clipPath><clipPath id="2daf0d5d4b"><path d="M 1045.046875 7.0625 L 752.933594 154.351562 L 608.339844 -132.410156 L 900.449219 -279.703125 Z M 1045.046875 7.0625 " clip-rule="nonzero"/></clipPath><clipPath id="09bc2ea26c"><path d="M 1045.046875 7.0625 L 752.933594 154.351562 L 608.339844 -132.410156 L 900.449219 -279.703125 Z M 1045.046875 7.0625 " clip-rule="nonzero"/></clipPath><clipPath id="1aef637e32"><path d="M 865 46 L 887 46 L 887 69 L 865 69 Z M 865 46 " clip-rule="nonzero"/></clipPath><clipPath id="37e6a2f80c"><path d="M 1045.046875 7.0625 L 752.933594 154.351562 L 608.339844 -132.410156 L 900.449219 -279.703125 Z M 1045.046875 7.0625 " clip-rule="nonzero"/></clipPath><clipPath id="aa93da37a3"><path d="M 1045.046875 7.0625 L 752.933594 154.351562 L 608.339844 -132.410156 L 900.449219 -279.703125 Z M 1045.046875 7.0625 " clip-rule="nonzero"/></clipPath><clipPath id="2d7aedc78c"><path d="M 715 43 L 731 43 L 731 59 L 715 59 Z M 715 43 " clip-rule="nonzero"/></clipPath><clipPath id="04074e60fb"><path d="M 1045.046875 7.0625 L 752.933594 154.351562 L 608.339844 -132.410156 L 900.449219 -279.703125 Z M 1045.046875 7.0625 " clip-rule="nonzero"/></clipPath><clipPath id="6949b09364"><path d="M 1045.046875 7.0625 L 752.933594 154.351562 L 608.339844 -132.410156 L 900.449219 -279.703125 Z M 1045.046875 7.0625 " clip-rule="nonzero"/></clipPath><clipPath id="512dd54699"><path d="M 948 0 L 959.113281 0 L 959.113281 12 L 948 12 Z M 948 0 " clip-rule="nonzero"/></clipPath><clipPath id="9a509075bb"><path d="M 1045.046875 7.0625 L 752.933594 154.351562 L 608.339844 -132.410156 L 900.449219 -279.703125 Z M 1045.046875 7.0625 " clip-rule="nonzero"/></clipPath><clipPath id="3bf418b611"><path d="M 1045.046875 7.0625 L 752.933594 154.351562 L 608.339844 -132.410156 L 900.449219 -279.703125 Z M 1045.046875 7.0625 " clip-rule="nonzero"/></clipPath><clipPath id="5a10d5efa8"><path d="M 376.285156 530.03125 L 384.964844 530.03125 L 384.964844 538.558594 L 376.285156 538.558594 Z M 376.285156 530.03125 " clip-rule="nonzero"/></clipPath><clipPath id="f4efa316f5"><path d="M 228.976562 218 L 707.085938 218 L 707.085938 488.566406 L 228.976562 488.566406 Z M 228.976562 218 " clip-rule="nonzero"/></clipPath><clipPath id="ecacd18543"><path d="M 228.976562 278.117188 L 707.085938 278.117188 L 707.085938 488.566406 L 228.976562 488.566406 Z M 228.976562 278.117188 " clip-rule="nonzero"/></clipPath></defs><g clip-path="url(#39e3840d1c)"><g clip-path="url(#568097e3b6)"><g clip-path="url(#bfafb5e4d9)"><path fill="#f5e7ab" d="M 818.570312 45.195312 C 814.28125 39.453125 812.921875 39.003906 806.058594 41.070312 C 811.800781 36.78125 812.246094 35.421875 810.183594 28.5625 C 814.472656 34.304688 815.832031 34.75 822.691406 32.683594 C 816.949219 36.972656 816.503906 38.332031 818.570312 45.195312 Z M 818.570312 45.195312 " fill-opacity="1" fill-rule="nonzero"/></g></g></g><g clip-path="url(#e62fdf08b2)"><g clip-path="url(#dd7cb88bbb)"><g clip-path="url(#d0b53ba05c)"><path fill="#dbd0ff" d="M 808.996094 39.054688 C 804.820312 33.46875 803.5 33.035156 796.820312 35.042969 C 802.40625 30.867188 802.839844 29.546875 800.832031 22.871094 C 805.007812 28.457031 806.328125 28.890625 813.007812 26.882812 C 807.421875 31.058594 806.984375 32.375 808.996094 39.054688 Z M 808.996094 39.054688 " fill-opacity="1" fill-rule="nonzero"/></g></g></g><g clip-path="url(#1a6e518972)"><g clip-path="url(#bdb400c82a)"><g clip-path="url(#9c7c987b74)"><path fill="#f8b6d2" d="M 717.582031 57.464844 C 711.898438 49.863281 710.101562 49.269531 701.015625 52.003906 C 708.617188 46.320312 709.210938 44.523438 706.476562 35.4375 C 712.15625 43.042969 713.957031 43.632812 723.042969 40.898438 C 715.4375 46.582031 714.847656 48.378906 717.582031 57.464844 Z M 717.582031 57.464844 " fill-opacity="1" fill-rule="nonzero"/></g></g></g><g clip-path="url(#a217137321)"><g clip-path="url(#1a5042136f)"><g clip-path="url(#4a2303048f)"><path fill="#f8b6d2" d="M 818.054688 38.964844 C 814.34375 33.996094 813.171875 33.613281 807.234375 35.398438 C 812.199219 31.683594 812.585938 30.511719 810.800781 24.578125 C 814.511719 29.542969 815.683594 29.925781 821.621094 28.140625 C 816.65625 31.855469 816.269531 33.027344 818.054688 38.964844 Z M 818.054688 38.964844 " fill-opacity="1" fill-rule="nonzero"/></g></g></g><g clip-path="url(#73101e29b8)"><g clip-path="url(#6f7057f0ad)"><g clip-path="url(#f904564f8f)"><path fill="#f5e7ab" d="M 870.199219 52.777344 C 868.578125 50.605469 868.0625 50.433594 865.464844 51.214844 C 867.640625 49.589844 867.808594 49.078125 867.027344 46.480469 C 868.652344 48.652344 869.164062 48.824219 871.761719 48.042969 C 869.589844 49.664062 869.417969 50.179688 870.199219 52.777344 Z M 870.199219 52.777344 " fill-opacity="1" fill-rule="nonzero"/></g></g></g><g clip-path="url(#cff061c906)"><g clip-path="url(#6350c7116e)"><g clip-path="url(#38e9a3369f)"><path fill="#dbd0ff" d="M 800.90625 75.808594 C 799.28125 73.636719 798.769531 73.464844 796.171875 74.246094 C 798.34375 72.621094 798.515625 72.109375 797.734375 69.511719 C 799.359375 71.683594 799.871094 71.855469 802.46875 71.074219 C 800.296875 72.699219 800.125 73.210938 800.90625 75.808594 Z M 800.90625 75.808594 " fill-opacity="1" fill-rule="nonzero"/></g></g></g><g clip-path="url(#b0b598cd75)"><g clip-path="url(#2daf0d5d4b)"><g clip-path="url(#09bc2ea26c)"><path fill="#f8b6d2" d="M 867.0625 29.535156 C 864.628906 26.277344 863.859375 26.023438 859.960938 27.199219 C 863.21875 24.761719 863.472656 23.992188 862.304688 20.097656 C 864.738281 23.355469 865.507812 23.609375 869.40625 22.4375 C 866.148438 24.871094 865.894531 25.640625 867.0625 29.535156 Z M 867.0625 29.535156 " fill-opacity="1" fill-rule="nonzero"/></g></g></g><g clip-path="url(#1aef637e32)"><g clip-path="url(#37e6a2f80c)"><g clip-path="url(#aa93da37a3)"><path fill="#dbd0ff" d="M 881.632812 68.503906 C 876.066406 61.058594 874.308594 60.476562 865.402344 63.15625 C 872.851562 57.589844 873.433594 55.828125 870.753906 46.925781 C 876.320312 54.375 878.078125 54.953125 886.984375 52.273438 C 879.535156 57.839844 878.957031 59.601562 881.632812 68.503906 Z M 881.632812 68.503906 " fill-opacity="1" fill-rule="nonzero"/></g></g></g><g clip-path="url(#2d7aedc78c)"><g clip-path="url(#04074e60fb)"><g clip-path="url(#6949b09364)"><path fill="#f8b6d2" d="M 727.15625 58.742188 C 723.214844 53.464844 721.964844 53.054688 715.660156 54.953125 C 720.9375 51.011719 721.347656 49.761719 719.449219 43.457031 C 723.390625 48.730469 724.640625 49.144531 730.945312 47.246094 C 725.667969 51.1875 725.257812 52.433594 727.15625 58.742188 Z M 727.15625 58.742188 " fill-opacity="1" fill-rule="nonzero"/></g></g></g><g clip-path="url(#512dd54699)"><g clip-path="url(#9a509075bb)"><g clip-path="url(#3bf418b611)"><path fill="#f8b6d2" d="M 963.914062 11.148438 C 958.464844 3.851562 956.742188 3.285156 948.023438 5.910156 C 955.316406 0.460938 955.882812 -1.265625 953.261719 -9.980469 C 958.710938 -2.6875 960.433594 -2.121094 969.15625 -4.746094 C 961.863281 0.703125 961.296875 2.429688 963.914062 11.148438 Z M 963.914062 11.148438 " fill-opacity="1" fill-rule="nonzero"/></g></g></g><path fill="#f9f172" d="M 564.582031 172.21875 C 565.652344 173.191406 566.761719 174.113281 567.902344 174.984375 C 578.472656 183.046875 592.007812 186.882812 605.355469 187.5625 C 639.699219 189.316406 674.261719 170.039062 690.808594 139.90625 C 707.359375 109.769531 705.074219 70.265625 685.164062 42.234375 C 681.4375 36.988281 677.132812 32.195312 672.363281 27.902344 C 651.863281 9.4375 622.910156 0.277344 595.574219 4.609375 C 623.042969 5.75 650.519531 25.109375 662.894531 49.660156 C 675.257812 74.210938 674.523438 100.707031 662.378906 125.371094 C 656.867188 136.554688 648.910156 147.003906 639.515625 154.359375 C 620.070312 169.574219 587.625 181.105469 564.582031 172.21875 " fill-opacity="1" fill-rule="nonzero"/><path fill="#fbe356" d="M 567.902344 174.984375 C 578.472656 183.046875 592.003906 186.886719 605.355469 187.566406 C 639.695312 189.320312 674.257812 170.042969 690.808594 139.910156 C 707.355469 109.773438 705.074219 70.265625 685.164062 42.238281 C 681.4375 36.992188 677.128906 32.199219 672.359375 27.90625 C 693.621094 56.417969 698.964844 97.257812 682.5 129.140625 C 661.917969 168.992188 610.199219 189.175781 567.902344 174.984375 " fill-opacity="1" fill-rule="nonzero"/><path fill="#f9f172" d="M 552.699219 33.355469 C 542.148438 35.078125 531.597656 36.804688 521.046875 38.527344 C 518.34375 30.203125 515.847656 21.816406 513.570312 13.367188 C 511.890625 22.4375 510.207031 31.507812 508.53125 40.574219 C 500.921875 41.816406 493.308594 43.058594 485.699219 44.304688 C 492.699219 46.898438 499.519531 49.960938 506.160156 53.378906 C 505.210938 58.488281 502.492188 67.324219 501.546875 72.433594 C 505.242188 68.746094 510.863281 61.492188 514.855469 58.121094 C 516.335938 58.976562 517.808594 59.84375 519.269531 60.726562 C 523.757812 63.441406 528.164062 66.3125 532.242188 69.617188 C 529.691406 63.179688 527.273438 56.695312 524.980469 50.167969 C 533.710938 43.773438 542.996094 38.140625 552.699219 33.355469 " fill-opacity="1" fill-rule="nonzero"/><path fill="#f9f172" d="M 588.140625 43.453125 C 583.839844 44.15625 579.542969 44.859375 575.242188 45.558594 C 574.140625 42.171875 573.121094 38.753906 572.195312 35.308594 C 571.511719 39.007812 570.824219 42.699219 570.140625 46.394531 C 567.039062 46.898438 563.9375 47.40625 560.839844 47.914062 C 563.691406 48.972656 566.472656 50.21875 569.171875 51.613281 C 568.785156 53.695312 567.683594 57.296875 567.296875 59.378906 C 568.804688 57.875 571.09375 54.917969 572.71875 53.542969 C 573.324219 53.894531 573.921875 54.246094 574.519531 54.605469 C 576.347656 55.710938 578.144531 56.882812 579.804688 58.226562 C 578.765625 55.605469 577.777344 52.964844 576.84375 50.300781 C 580.402344 47.699219 584.1875 45.402344 588.140625 43.453125 " fill-opacity="1" fill-rule="nonzero"/><path fill="#f9f172" d="M 588.222656 88.273438 C 580.921875 89.464844 573.621094 90.65625 566.320312 91.851562 C 564.449219 86.089844 562.726562 80.289062 561.148438 74.441406 C 559.984375 80.71875 558.820312 86.992188 557.660156 93.265625 C 552.394531 94.125 547.128906 94.984375 541.867188 95.847656 C 546.707031 97.644531 551.425781 99.761719 556.019531 102.128906 C 555.363281 105.664062 553.484375 111.773438 552.828125 115.308594 C 555.386719 112.757812 559.277344 107.738281 562.039062 105.410156 C 563.066406 106 564.082031 106.597656 565.089844 107.210938 C 568.195312 109.089844 571.246094 111.078125 574.066406 113.359375 C 572.304688 108.910156 570.628906 104.421875 569.042969 99.902344 C 575.085938 95.480469 581.503906 91.582031 588.222656 88.273438 " fill-opacity="1" fill-rule="nonzero"/><path fill="#f7ef43" d="M 366.175781 478.410156 C 357.960938 479.75 349.75 481.089844 341.539062 482.433594 C 339.433594 475.957031 337.496094 469.429688 335.71875 462.855469 C 334.414062 469.910156 333.105469 476.96875 331.796875 484.023438 C 325.875 484.996094 319.953125 485.960938 314.03125 486.929688 C 319.480469 488.949219 324.785156 491.332031 329.953125 493.996094 C 329.214844 497.972656 327.101562 504.847656 326.363281 508.824219 C 329.238281 505.953125 333.613281 500.304688 336.722656 497.6875 C 337.875 498.347656 339.019531 499.023438 340.15625 499.710938 C 343.648438 501.824219 347.078125 504.058594 350.253906 506.628906 C 348.265625 501.621094 346.386719 496.574219 344.601562 491.492188 C 351.394531 486.519531 358.621094 482.132812 366.175781 478.410156 " fill-opacity="1" fill-rule="nonzero"/><path fill="#f7ef43" d="M 397.375 504.179688 C 392.097656 505.039062 386.824219 505.902344 381.546875 506.765625 C 380.195312 502.605469 378.949219 498.410156 377.808594 494.1875 C 376.96875 498.71875 376.128906 503.253906 375.289062 507.785156 C 371.484375 508.410156 367.679688 509.03125 363.875 509.652344 C 367.375 510.953125 370.785156 512.480469 374.105469 514.191406 C 373.632812 516.746094 372.273438 521.164062 371.800781 523.71875 C 373.648438 521.871094 376.457031 518.246094 378.453125 516.5625 C 379.195312 516.988281 379.929688 517.421875 380.660156 517.863281 C 382.902344 519.222656 385.109375 520.65625 387.148438 522.308594 C 385.871094 519.09375 384.664062 515.847656 383.515625 512.582031 C 387.882812 509.390625 392.523438 506.570312 397.375 504.179688 " fill-opacity="1" fill-rule="nonzero"/><path fill="#f7ef43" d="M 609.03125 63.382812 C 609.03125 66.566406 606.449219 69.144531 603.261719 69.144531 C 600.082031 69.144531 597.503906 66.566406 597.503906 63.382812 C 597.503906 60.199219 600.082031 57.621094 603.261719 57.621094 C 606.449219 57.621094 609.03125 60.199219 609.03125 63.382812 " fill-opacity="1" fill-rule="nonzero"/><path fill="#f9f172" d="M 607.058594 35.644531 C 607.058594 37.738281 605.359375 39.441406 603.265625 39.441406 C 601.167969 39.441406 599.46875 37.738281 599.46875 35.644531 C 599.46875 33.546875 601.167969 31.847656 603.265625 31.847656 C 605.359375 31.847656 607.058594 33.546875 607.058594 35.644531 " fill-opacity="1" fill-rule="nonzero"/><path fill="#f9f172" d="M 491.828125 90.359375 C 491.828125 91.953125 490.535156 93.246094 488.945312 93.246094 C 487.351562 93.246094 486.0625 91.953125 486.0625 90.359375 C 486.0625 88.769531 487.351562 87.480469 488.945312 87.480469 C 490.535156 87.480469 491.828125 88.769531 491.828125 90.359375 " fill-opacity="1" fill-rule="nonzero"/><path fill="#f7ef43" d="M 362.503906 521.183594 C 363.90625 521.941406 364.425781 523.691406 363.667969 525.089844 C 362.910156 526.488281 361.164062 527.007812 359.761719 526.25 C 358.363281 525.496094 357.839844 523.746094 358.601562 522.347656 C 359.355469 520.945312 361.105469 520.425781 362.503906 521.183594 " fill-opacity="1" fill-rule="nonzero"/><g clip-path="url(#5a10d5efa8)"><path fill="#f7ef43" d="M 382.628906 530.652344 C 384.671875 531.757812 385.429688 534.3125 384.324219 536.355469 C 383.21875 538.398438 380.667969 539.15625 378.625 538.050781 C 376.582031 536.945312 375.820312 534.394531 376.925781 532.351562 C 378.03125 530.308594 380.585938 529.546875 382.628906 530.652344 " fill-opacity="1" fill-rule="nonzero"/></g><path fill="#f7ef43" d="M 317.046875 465.710938 C 318.445312 466.46875 318.964844 468.214844 318.210938 469.617188 C 317.453125 471.015625 315.703125 471.535156 314.300781 470.777344 C 312.902344 470.023438 312.382812 468.269531 313.140625 466.875 C 313.898438 465.472656 315.648438 464.953125 317.046875 465.710938 " fill-opacity="1" fill-rule="nonzero"/><path fill="#f7ef43" d="M 508.046875 107.929688 C 502.183594 107.929688 502.171875 117.039062 508.046875 117.039062 C 513.914062 117.039062 513.921875 107.929688 508.046875 107.929688 " fill-opacity="1" fill-rule="nonzero"/><g clip-path="url(#f4efa316f5)"><path fill="#ead7ee" d="M 704.355469 352.070312 C 699.691406 366.109375 684.789062 379.371094 671.28125 373.34375 C 676.488281 390.996094 669.117188 411.609375 653.898438 421.953125 C 638.683594 432.300781 616.796875 431.574219 602.300781 420.238281 C 608.09375 444.5625 589.324219 470.773438 564.976562 476.460938 C 540.625 482.148438 514.148438 469.398438 500.105469 448.710938 C 483.839844 474.539062 452.875 490.351562 422.414062 488.390625 C 391.957031 486.417969 363.277344 466.761719 350.46875 439.058594 C 321.164062 458.578125 278.605469 456.925781 252.59375 433.191406 C 226.589844 409.457031 221.769531 365.042969 244.046875 337.78125 C 228.359375 329.023438 224.699219 305.894531 234.09375 290.582031 C 237.113281 285.660156 241.132812 281.550781 245.792969 278.269531 C 255.640625 271.328125 268.347656 268.0625 280.535156 268.578125 L 278.230469 272.078125 C 296.226562 257.496094 321.234375 255.613281 344.375 256.675781 C 369.402344 257.832031 394.304688 261.6875 418.511719 268.160156 C 426.882812 247.449219 444.296875 230.578125 465.265625 222.863281 C 486.230469 215.152344 510.429688 216.71875 530.226562 227.066406 C 553.574219 239.269531 569.429688 262.046875 582.070312 285.15625 C 607.019531 267.1875 641.710938 261.617188 669.3125 275.164062 C 676.980469 278.925781 683.835938 284.28125 689.539062 290.675781 C 704.359375 307.316406 711.351562 330.996094 704.355469 352.070312 " fill-opacity="1" fill-rule="nonzero"/></g><g clip-path="url(#ecacd18543)"><path fill="#d4c8e5" d="M 704.355469 352.070312 C 699.691406 366.109375 684.789062 379.371094 671.28125 373.34375 C 676.488281 390.996094 669.117188 411.609375 653.898438 421.953125 C 638.683594 432.300781 616.796875 431.574219 602.300781 420.238281 C 608.09375 444.5625 589.324219 470.773438 564.976562 476.460938 C 540.625 482.148438 514.148438 469.398438 500.105469 448.710938 C 483.839844 474.539062 452.875 490.351562 422.414062 488.390625 C 391.957031 486.417969 363.277344 466.761719 350.46875 439.058594 C 321.164062 458.578125 278.605469 456.925781 252.59375 433.191406 C 226.589844 409.457031 221.769531 365.042969 244.046875 337.78125 C 228.359375 329.023438 224.699219 305.894531 234.09375 290.582031 C 237.113281 285.660156 241.132812 281.550781 245.792969 278.269531 C 241.207031 297.898438 250.8125 320.734375 269.097656 329.828125 C 253.726562 352.679688 257.898438 386.578125 278.347656 405.027344 C 298.796875 423.480469 332.949219 424.15625 354.113281 406.53125 C 360.578125 423.433594 371.972656 438.679688 387.308594 448.285156 C 402.644531 457.890625 422.003906 461.457031 439.371094 456.378906 C 460.175781 450.304688 475.640625 433.289062 489.960938 417.023438 C 501.78125 426.484375 513.824219 436.074219 527.867188 441.722656 C 541.914062 447.371094 558.515625 448.605469 571.832031 441.40625 C 587.527344 432.925781 595.53125 414.617188 597.769531 396.925781 C 606.835938 406.707031 624.246094 403.953125 633.230469 394.101562 C 642.214844 384.253906 644.339844 369.894531 643.628906 356.582031 C 654.488281 360.773438 666.757812 353.957031 674.128906 344.953125 C 686.367188 330 689.632812 310.410156 689.539062 290.675781 C 704.359375 307.316406 711.351562 330.996094 704.355469 352.070312 " fill-opacity="1" fill-rule="nonzero"/></g><path fill="#ead7ee" d="M 288.964844 433.882812 C 277.59375 431.609375 267.183594 425.800781 259.226562 417.34375 C 250.988281 408.589844 245.898438 397.058594 244.847656 385.070312 C 244.226562 377.953125 244.917969 370.835938 246.988281 363.992188 C 248.066406 360.421875 242.484375 358.894531 241.40625 362.457031 C 237.464844 375.492188 238.074219 389.941406 243.152344 402.589844 C 248.015625 414.703125 256.699219 424.898438 267.824219 431.730469 C 273.832031 435.417969 280.515625 438.078125 287.425781 439.464844 C 288.957031 439.769531 290.550781 439.027344 290.984375 437.441406 C 291.375 436.019531 290.503906 434.191406 288.964844 433.882812 " fill-opacity="1" fill-rule="nonzero"/><path fill="#ead7ee" d="M 311.277344 439.453125 C 310.839844 437.863281 309.253906 437.121094 307.71875 437.433594 C 307.640625 437.449219 307.582031 437.460938 307.53125 437.472656 C 307.433594 437.476562 307.335938 437.480469 307.238281 437.484375 C 307.054688 437.488281 306.867188 437.484375 306.683594 437.46875 C 306.660156 437.464844 306.632812 437.457031 306.597656 437.453125 C 306.441406 437.421875 306.289062 437.382812 306.136719 437.339844 C 305.902344 437.25 305.796875 437.214844 305.820312 437.234375 C 305.664062 437.148438 305.265625 436.925781 305.121094 436.832031 C 303.800781 435.992188 301.929688 436.558594 301.160156 437.871094 C 300.34375 439.265625 300.878906 440.984375 302.199219 441.828125 C 304.328125 443.183594 306.8125 443.511719 309.257812 443.011719 C 310.789062 442.699219 311.671875 440.890625 311.277344 439.453125 " fill-opacity="1" fill-rule="nonzero"/><path fill="#ead7ee" d="M 591.082031 440.457031 C 589.414062 440 588.125 441.03125 587.523438 442.476562 C 584.996094 448.546875 580.445312 454.027344 574.992188 457.742188 C 568.796875 461.964844 561.507812 464.042969 553.980469 463.792969 C 549.679688 463.648438 545.328125 462.726562 541.375 461 C 539.945312 460.375 538.273438 460.578125 537.417969 462.039062 C 536.703125 463.261719 537.015625 465.367188 538.457031 465.996094 C 546.890625 469.675781 556.269531 470.59375 565.230469 468.386719 C 573.164062 466.433594 580.472656 461.914062 585.84375 455.773438 C 588.925781 452.25 591.304688 448.328125 593.101562 444.015625 C 593.703125 442.574219 592.453125 440.832031 591.082031 440.457031 " fill-opacity="1" fill-rule="nonzero"/><path fill="#fcf9fd" d="M 520.1875 232.410156 C 506.867188 226.289062 491.855469 224.609375 477.496094 227.585938 C 473.527344 228.40625 469.652344 229.613281 465.90625 231.167969 C 464.46875 231.769531 463.4375 233.085938 463.886719 234.726562 C 464.261719 236.089844 465.996094 237.351562 467.445312 236.746094 C 483.261719 230.175781 501.648438 230.230469 517.265625 237.402344 C 518.6875 238.054688 520.382812 237.804688 521.226562 236.367188 C 521.953125 235.121094 521.613281 233.066406 520.1875 232.410156 " fill-opacity="1" fill-rule="nonzero"/><path fill="#603222" d="M 347.8125 162.109375 C 343.265625 152.289062 342.65625 138.058594 350.867188 129.273438 C 359.082031 120.492188 372.460938 117.78125 384.175781 120.496094 C 386.726562 121.089844 389.25 121.921875 391.464844 123.3125 C 398.054688 127.445312 400.800781 135.667969 401.738281 143.390625 C 402.484375 149.546875 402.367188 155.9375 400.253906 161.769531 C 396.390625 172.421875 385.488281 180.117188 374.152344 180.195312 C 362.816406 180.265625 351.816406 172.710938 347.8125 162.109375 " fill-opacity="1" fill-rule="nonzero"/><path fill="#fbc789" d="M 359.703125 160.277344 C 359.105469 158.632812 358.578125 156.964844 358.128906 155.273438 C 357.546875 153.101562 357.089844 150.859375 357.273438 148.617188 C 357.59375 144.65625 359.933594 141.039062 363.0625 138.589844 C 366.191406 136.144531 370.042969 134.773438 373.945312 134.015625 C 378.671875 133.097656 384.335938 133.378906 387.269531 137.195312 C 389.542969 140.152344 389.414062 144.242188 389.058594 147.953125 C 388.683594 151.878906 388.148438 155.871094 386.425781 159.417969 C 385.222656 161.898438 383.371094 164.160156 380.878906 165.328125 C 378.675781 166.355469 376.160156 166.457031 373.730469 166.359375 C 369.214844 166.171875 364.730469 165.335938 360.449219 163.882812 " fill-opacity="1" fill-rule="nonzero"/><path fill="#603222" d="M 268.847656 250.53125 C 258.5 247.355469 244.316406 248.679688 236.722656 258.003906 C 229.132812 267.328125 228.253906 280.953125 232.535156 292.1875 C 233.464844 294.632812 234.632812 297.019531 236.308594 299.027344 C 241.296875 304.996094 249.816406 306.601562 257.59375 306.488281 C 263.800781 306.394531 270.113281 305.414062 275.605469 302.53125 C 285.644531 297.257812 291.792969 285.417969 290.332031 274.175781 C 288.871094 262.9375 279.898438 253.0625 268.847656 250.53125 " fill-opacity="1" fill-rule="nonzero"/><path fill="#fbc789" d="M 279.257812 287.457031 C 279.566406 285.738281 279.796875 284 279.953125 282.257812 C 280.152344 280.019531 280.21875 277.726562 279.65625 275.550781 C 278.664062 271.707031 275.734375 268.542969 272.234375 266.664062 C 268.734375 264.792969 264.703125 264.097656 260.730469 264.023438 C 255.914062 263.925781 250.382812 265.175781 248.144531 269.4375 C 246.414062 272.738281 247.242188 276.746094 248.222656 280.339844 C 249.265625 284.144531 250.476562 287.984375 252.78125 291.183594 C 254.394531 293.417969 256.601562 295.332031 259.257812 296.054688 C 261.605469 296.695312 264.101562 296.367188 266.480469 295.847656 C 270.894531 294.890625 275.171875 293.296875 279.136719 291.136719 " fill-opacity="1" fill-rule="nonzero"/><path fill="#f79853" d="M 686.335938 372.917969 C 686.125 382.550781 684.027344 392.09375 680.351562 401.050781 C 678.9375 404.484375 677.292969 407.84375 675.429688 411.078125 C 669.996094 420.535156 662.726562 428.996094 654.054688 435.742188 C 647.90625 440.53125 641.058594 444.453125 633.660156 447.265625 C 627.695312 449.53125 620.984375 451.101562 614.933594 449.054688 C 608.882812 447.011719 604.292969 440.113281 606.953125 434.488281 C 609.179688 429.789062 615.011719 428.011719 620.132812 426.464844 C 627.1875 424.324219 634.183594 421.582031 640.601562 418.015625 C 647.472656 414.199219 653.683594 409.433594 658.597656 403.449219 C 665.417969 395.144531 669.171875 385.035156 670.277344 374.503906 C 670.582031 371.589844 670.683594 368.636719 670.59375 365.683594 C 670.347656 357.726562 668.6875 349.753906 665.789062 342.351562 C 665.417969 341.410156 665.03125 340.472656 664.628906 339.546875 C 663.507812 336.976562 662.257812 334.46875 660.894531 332.023438 C 654.300781 320.199219 645.003906 309.804688 634.558594 300.675781 C 632.394531 298.785156 630.1875 296.949219 627.941406 295.167969 C 626.878906 294.324219 625.808594 293.492188 624.730469 292.671875 C 614.773438 285.09375 603.304688 278.066406 590.621094 278.035156 C 586.503906 278.023438 581.941406 278.640625 578.679688 276.222656 C 575.417969 273.808594 576.800781 267.035156 580.8125 267.917969 L 581.980469 265.011719 C 593.886719 264.542969 605.5 266.855469 616.363281 271.234375 C 619.589844 272.53125 622.75 274.011719 625.832031 275.660156 C 637.460938 281.859375 647.996094 290.382812 656.816406 300.222656 C 658.855469 302.492188 660.796875 304.828125 662.644531 307.226562 C 664.152344 309.1875 665.597656 311.191406 666.96875 313.222656 C 673.863281 323.417969 679.382812 334.625 682.738281 346.335938 C 683.476562 348.890625 684.105469 351.476562 684.628906 354.078125 C 685.867188 360.277344 686.472656 366.582031 686.335938 372.917969 " fill-opacity="1" fill-rule="nonzero"/><path fill="#a15bb4" d="M 583.507812 318.941406 C 582.191406 320.355469 580.808594 321.707031 579.378906 322.988281 C 578.171875 324.070312 576.925781 325.097656 575.65625 326.078125 C 573.457031 327.769531 570.960938 329.664062 570.628906 332.417969 C 570.40625 334.257812 571.152344 335.789062 572.285156 337.21875 C 574.082031 339.492188 576.863281 341.5 578.300781 344.070312 C 580.757812 348.472656 578.960938 353.964844 576.859375 358.542969 C 570.894531 371.523438 562.6875 383.46875 552.710938 393.691406 C 549.140625 397.347656 544.628906 401.03125 539.558594 400.414062 C 535.433594 399.910156 532.066406 396.457031 530.839844 392.488281 C 529.613281 388.519531 530.246094 384.175781 531.714844 380.292969 C 533.21875 376.308594 535.621094 372.277344 534.789062 368.105469 C 534.523438 366.78125 533.945312 365.5625 533.160156 364.46875 C 532.03125 362.890625 530.480469 361.5625 528.835938 360.507812 C 525.648438 358.457031 522.0625 357.191406 518.40625 356.113281 C 516.714844 355.617188 515.011719 355.15625 513.324219 354.679688 C 513.265625 354.664062 513.207031 354.648438 513.148438 354.632812 C 507.753906 353.101562 502.242188 351.1875 498.214844 347.285156 C 494.1875 343.382812 492.082031 336.980469 494.675781 332.007812 C 490.449219 333.222656 485.996094 333.65625 481.617188 333.273438 C 476.132812 349.097656 465.800781 363.210938 452.371094 373.226562 C 446.433594 377.65625 439.800781 381.410156 433.601562 385.5625 C 432.121094 386.554688 430.664062 387.574219 429.25 388.625 C 428.351562 389.289062 427.46875 389.976562 426.605469 390.675781 C 422.679688 393.871094 419.167969 397.457031 416.445312 401.789062 C 412.773438 407.617188 410.085938 415.125 403.546875 417.300781 C 398.144531 419.097656 391.945312 416.070312 388.886719 411.269531 C 385.828125 406.464844 385.46875 400.359375 386.519531 394.765625 C 388.03125 386.738281 392.15625 379.617188 397.636719 373.5 C 398.902344 372.085938 400.246094 370.722656 401.644531 369.417969 C 403.042969 368.105469 404.503906 366.847656 406.003906 365.652344 C 408.132812 363.945312 410.351562 362.351562 412.609375 360.875 C 417.917969 357.414062 423.675781 354.277344 428.230469 349.976562 C 429.578125 348.710938 430.816406 347.335938 431.910156 345.820312 C 432.070312 345.597656 432.226562 345.375 432.378906 345.148438 C 433.261719 343.835938 434.046875 342.269531 433.703125 340.722656 C 433.445312 339.582031 432.613281 338.65625 431.734375 337.886719 C 425.515625 332.421875 416.328125 332.09375 408.128906 333.230469 C 399.925781 334.367188 391.6875 336.6875 383.5 335.460938 C 381.855469 335.222656 380.179688 334.808594 378.855469 333.808594 C 376.035156 331.675781 375.632812 327.578125 376.160156 324.082031 C 377.160156 317.457031 380.554688 311.445312 384.296875 305.890625 C 400.382812 281.988281 424.269531 263.4375 451.40625 253.757812 L 452.078125 255.03125 C 459.753906 264.582031 473.824219 266.550781 485.8125 264 C 497.796875 261.445312 508.65625 255.265625 520.175781 251.09375 C 535.222656 245.640625 552.074219 243.699219 567.21875 248.859375 C 570.546875 249.992188 573.757812 251.511719 576.773438 253.363281 C 576.773438 253.363281 576.773438 253.363281 576.777344 253.363281 C 577.800781 253.992188 578.804688 254.660156 579.777344 255.359375 C 586.324219 260.082031 591.660156 266.425781 594.679688 273.714844 C 595.425781 275.503906 596.03125 277.347656 596.472656 279.246094 C 596.777344 280.519531 597.003906 281.816406 597.160156 283.128906 C 598.703125 296.28125 592.667969 309.109375 583.507812 318.941406 " fill-opacity="1" fill-rule="nonzero"/><path fill="#f79853" d="M 432.992188 301.792969 C 412.402344 331.542969 380.136719 355.640625 343.972656 356.710938 C 336.136719 356.945312 328.113281 356.054688 321.011719 352.738281 C 320.53125 352.511719 320.054688 352.277344 319.585938 352.035156 C 316.691406 350.523438 314.035156 348.65625 311.570312 346.539062 C 310.429688 345.554688 309.332031 344.523438 308.269531 343.449219 C 306.496094 341.65625 304.820312 339.742188 303.222656 337.757812 C 302.0625 336.328125 300.949219 334.859375 299.863281 333.375 C 298.632812 331.691406 297.4375 329.984375 296.269531 328.277344 C 296.078125 327.996094 295.882812 327.714844 295.691406 327.429688 C 279.070312 303.085938 264.285156 277.507812 266.789062 248.140625 C 267.460938 241.410156 269.070312 235.671875 271.542969 230.203125 C 273.207031 226.519531 275.257812 222.957031 277.671875 219.289062 C 279.195312 216.972656 280.863281 214.609375 282.667969 212.15625 C 283.53125 210.984375 284.414062 209.824219 285.320312 208.683594 C 289.285156 203.671875 293.617188 198.972656 298.140625 194.4375 C 301.777344 190.792969 305.535156 187.25 309.324219 183.753906 C 310.824219 182.367188 312.328125 180.984375 313.828125 179.605469 C 315.015625 178.515625 316.203125 177.425781 317.40625 176.351562 C 322.136719 172.113281 327.0625 168.082031 332.710938 165.222656 C 340.230469 161.414062 348.6875 159.871094 357.074219 159.027344 C 372.929688 157.429688 389.3125 158.25 404.160156 164.035156 C 407.722656 165.421875 411.15625 167.078125 414.488281 168.933594 C 416.960938 170.3125 419.378906 171.804688 421.746094 173.375 C 423.925781 174.824219 426.066406 176.339844 428.175781 177.90625 C 430.421875 179.574219 432.628906 181.292969 434.8125 183.042969 C 436.589844 184.464844 438.34375 185.910156 440.085938 187.351562 C 440.480469 187.683594 440.875 188.007812 441.269531 188.339844 L 441.5625 188.585938 C 443.859375 190.523438 446.109375 192.53125 448.042969 194.804688 C 448.582031 195.441406 449.097656 196.097656 449.582031 196.777344 C 452.984375 201.542969 454.730469 207.292969 455.847656 213.042969 C 461.832031 243.84375 450.851562 275.992188 432.992188 301.792969 " fill-opacity="1" fill-rule="nonzero"/><path fill="#f78d40" d="M 426.605469 390.675781 C 422.679688 393.871094 419.167969 397.457031 416.445312 401.789062 C 412.941406 407.351562 410.332031 414.445312 404.417969 416.972656 C 404.132812 417.089844 403.84375 417.203125 403.546875 417.300781 C 402.992188 417.484375 402.429688 417.621094 401.863281 417.703125 C 397.988281 418.292969 393.917969 416.664062 391.019531 413.867188 C 390.207031 413.085938 389.488281 412.210938 388.886719 411.269531 C 388.621094 410.851562 388.375 410.425781 388.152344 409.988281 C 385.777344 405.40625 385.558594 399.871094 386.519531 394.765625 C 388.03125 386.738281 392.15625 379.617188 397.636719 373.5 C 404.589844 374.753906 410.882812 378.464844 416.941406 382.148438 C 420.34375 384.21875 423.851562 386.410156 426.039062 389.742188 C 426.242188 390.042969 426.429688 390.359375 426.605469 390.675781 " fill-opacity="1" fill-rule="nonzero"/><path fill="#f78d40" d="M 576.859375 358.542969 C 570.894531 371.523438 562.6875 383.46875 552.710938 393.691406 C 549.996094 396.472656 546.738281 399.265625 543.101562 400.175781 C 542.25 400.390625 541.375 400.5 540.484375 400.480469 C 540.175781 400.476562 539.867188 400.453125 539.558594 400.414062 C 536.511719 400.042969 533.878906 398.058594 532.21875 395.453125 C 531.628906 394.527344 531.160156 393.523438 530.839844 392.488281 C 530.683594 391.980469 530.554688 391.464844 530.457031 390.945312 C 529.789062 387.410156 530.4375 383.675781 531.714844 380.292969 C 533.21875 376.308594 535.621094 372.277344 534.789062 368.105469 C 534.523438 366.78125 533.945312 365.5625 533.160156 364.46875 C 543.773438 352.433594 557.304688 342.972656 572.285156 337.21875 C 574.082031 339.492188 576.863281 341.5 578.300781 344.070312 C 580.757812 348.472656 578.960938 353.964844 576.859375 358.542969 " fill-opacity="1" fill-rule="nonzero"/><path fill="#fbc789" d="M 306.785156 273.796875 C 292.582031 283.371094 289.179688 304.425781 296.75 319.78125 C 298.886719 324.109375 301.773438 328.113281 305.496094 331.183594 C 312.125 336.652344 321.1875 338.824219 329.703125 337.648438 C 338.21875 336.476562 346.144531 332.128906 352.246094 326.078125 C 364.460938 313.96875 368.742188 293.171875 358.898438 279.066406 C 352.667969 270.136719 341.597656 265.039062 330.710938 265.324219 C 319.824219 265.609375 316.9375 267.066406 306.785156 273.796875 " fill-opacity="1" fill-rule="nonzero"/><path fill="#fbc789" d="M 362.394531 217.882812 C 365.136719 200.980469 382.832031 189.074219 399.953125 189.515625 C 404.777344 189.636719 409.621094 190.582031 413.96875 192.675781 C 421.714844 196.402344 427.480469 203.722656 429.984375 211.945312 C 432.484375 220.167969 431.855469 229.183594 428.917969 237.261719 C 423.035156 253.421875 405.941406 266.019531 389.011719 262.992188 C 378.289062 261.074219 369.023438 253.160156 364.722656 243.15625 C 360.421875 233.152344 360.53125 229.921875 362.394531 217.882812 " fill-opacity="1" fill-rule="nonzero"/><path fill="#a15bb4" d="M 419.175781 215.523438 C 418.921875 217.851562 418.667969 220.183594 418.414062 222.511719 L 418.414062 222.523438 C 418.089844 225.484375 417.761719 228.46875 416.847656 231.300781 C 414.894531 237.335938 410.433594 242.214844 405.730469 246.464844 C 402.296875 249.566406 398.65625 255.351562 394.527344 257.441406 C 392.65625 258.394531 391.605469 257.5 389.523438 256.773438 C 387.027344 255.90625 382.761719 251.691406 381.207031 249.554688 C 377.210938 244.050781 375.320312 238.003906 373.929688 231.34375 C 372.746094 225.660156 373.265625 219.445312 376.027344 214.398438 C 376.496094 213.535156 377.035156 212.710938 377.640625 211.921875 C 381.878906 206.417969 388.921875 203.648438 395.851562 203.050781 C 402.773438 202.460938 409.707031 203.785156 416.53125 205.097656 L 416.769531 205.519531 C 419.664062 207.660156 419.5625 211.949219 419.175781 215.523438 " fill-opacity="1" fill-rule="nonzero"/><path fill="#8e37a0" d="M 419.175781 215.523438 C 418.921875 217.851562 418.667969 220.183594 418.414062 222.511719 C 418.382812 222.480469 418.355469 222.449219 418.324219 222.421875 C 412.371094 216.375 404.328125 212.425781 395.90625 211.410156 C 389.171875 210.597656 382.230469 211.664062 376.027344 214.398438 C 376.496094 213.535156 377.035156 212.710938 377.640625 211.921875 C 381.878906 206.417969 388.921875 203.648438 395.851562 203.050781 C 402.773438 202.460938 409.707031 203.785156 416.53125 205.097656 L 416.769531 205.519531 C 419.664062 207.660156 419.5625 211.949219 419.175781 215.523438 " fill-opacity="1" fill-rule="nonzero"/><path fill="#603222" d="M 398.015625 253.691406 C 401.535156 250.089844 404.492188 245.980469 407.226562 241.765625 C 409.566406 238.15625 411.617188 234.441406 413.144531 230.414062 C 416.253906 222.191406 418.539062 211.378906 413.203125 203.585938 C 413.667969 203.175781 414.222656 202.867188 414.8125 202.730469 C 414.96875 202.640625 415.132812 202.5625 415.308594 202.496094 C 417.195312 201.8125 419.828125 202.527344 420.507812 204.648438 C 423.351562 213.492188 421.757812 223.039062 418.570312 231.578125 C 415.625 239.460938 410.703125 246.695312 404.0625 251.917969 C 400.875 254.425781 397.265625 256.480469 393.4375 257.855469 C 395.054688 256.570312 396.578125 255.15625 398.015625 253.691406 " fill-opacity="1" fill-rule="nonzero"/><path fill="#a15bb4" d="M 360.898438 297.5 C 359.332031 301.855469 354.046875 306.183594 351.394531 309.976562 C 347.757812 315.171875 343.472656 320.203125 337.726562 322.886719 C 335.28125 324.03125 332.65625 324.707031 330.03125 325.332031 C 329.757812 325.398438 329.484375 325.464844 329.210938 325.53125 C 326.925781 326.070312 324.644531 326.613281 322.359375 327.15625 C 318.855469 327.988281 314.613281 328.617188 312.128906 326.011719 L 311.683594 325.828125 C 309.527344 319.21875 307.355469 312.507812 307.082031 305.5625 C 306.8125 298.617188 308.691406 291.285156 313.628906 286.394531 C 314.796875 285.238281 316.101562 284.253906 317.507812 283.433594 C 321.917969 280.851562 327.300781 279.886719 332.441406 280.308594 C 339.222656 280.855469 345.460938 281.984375 351.414062 285.265625 C 353.730469 286.542969 358.441406 290.25 359.613281 292.617188 C 360.589844 294.59375 361.605469 295.527344 360.898438 297.5 " fill-opacity="1" fill-rule="nonzero"/><path fill="#8e37a0" d="M 330.03125 325.332031 C 329.757812 325.398438 329.484375 325.464844 329.210938 325.53125 C 326.925781 326.070312 324.644531 326.613281 322.359375 327.15625 C 318.855469 327.988281 314.613281 328.617188 312.128906 326.011719 L 311.683594 325.828125 C 309.527344 319.21875 307.355469 312.507812 307.082031 305.5625 C 306.8125 298.617188 308.691406 291.285156 313.628906 286.394531 C 314.796875 285.238281 316.101562 284.253906 317.507812 283.433594 C 313.402344 296.152344 317.210938 311.273438 327.230469 320.222656 C 328.070312 320.972656 328.972656 321.707031 329.511719 322.695312 C 329.964844 323.519531 330.117188 324.425781 330.03125 325.332031 " fill-opacity="1" fill-rule="nonzero"/><path fill="#603222" d="M 357.605469 301.425781 C 354.472656 305.367188 350.757812 308.8125 346.914062 312.042969 C 343.625 314.8125 340.195312 317.3125 336.382812 319.324219 C 328.613281 323.429688 318.164062 327.039062 309.769531 322.710938 C 309.417969 323.226562 309.183594 323.8125 309.117188 324.414062 C 309.050781 324.582031 308.992188 324.753906 308.949219 324.9375 C 308.503906 326.894531 309.539062 329.417969 311.726562 329.828125 C 320.859375 331.554688 330.136719 328.785156 338.214844 324.5625 C 345.671875 320.660156 352.238281 314.882812 356.597656 307.644531 C 358.691406 304.171875 360.285156 300.335938 361.175781 296.367188 C 360.097656 298.128906 358.886719 299.816406 357.605469 301.425781 " fill-opacity="1" fill-rule="nonzero"/><path fill="#603222" d="M 404.535156 269.378906 C 403.828125 267.828125 401.542969 269.175781 402.246094 270.71875 C 404.351562 275.34375 406.101562 281.574219 402.414062 285.933594 C 400.664062 288.003906 397.84375 288.800781 395.273438 289.292969 C 392.804688 289.765625 390.089844 289.621094 388.007812 288.164062 C 387.691406 287.777344 387.363281 287.398438 387.023438 287.046875 C 385.886719 285.867188 384.125 287.53125 385.011719 288.753906 C 385.050781 288.996094 385.175781 289.242188 385.410156 289.457031 C 385.648438 289.679688 385.898438 289.882812 386.152344 290.074219 C 388.941406 293.613281 390.449219 298.617188 387.867188 302.632812 C 385.257812 306.691406 379.519531 307.566406 375.769531 304.53125 C 374.453125 303.46875 372.566406 305.332031 373.894531 306.40625 C 378.78125 310.359375 386 309.679688 389.765625 304.539062 C 392.5625 300.722656 392.273438 295.996094 390.382812 291.941406 C 391.789062 292.214844 393.257812 292.238281 394.71875 292.050781 C 397.996094 291.625 401.734375 290.574219 404.054688 288.074219 C 408.957031 282.789062 407.210938 275.253906 404.535156 269.378906 " fill-opacity="1" fill-rule="nonzero"/><path fill="#a6421f" d="M 403.121094 297.972656 C 401.632812 299.789062 399.558594 300.683594 397.214844 300.5 C 395.511719 300.363281 395.523438 303.015625 397.214844 303.152344 C 400.171875 303.382812 403.113281 302.144531 404.996094 299.847656 C 406.066406 298.535156 404.203125 296.648438 403.121094 297.972656 " fill-opacity="1" fill-rule="nonzero"/><path fill="#603222" d="M 369.015625 292.195312 C 368.898438 285.839844 373.429688 281.601562 377.941406 277.125 C 380.625 274.460938 383.617188 271.851562 387.292969 270.972656 C 388.328125 270.722656 389.472656 270.632812 390.414062 271.125 C 391.507812 271.695312 392.105469 272.949219 392.214844 274.175781 C 392.324219 275.40625 392.019531 276.628906 391.71875 277.824219 C 390.542969 282.5 389.195312 287.46875 385.59375 290.671875 C 384.421875 291.710938 383.0625 292.515625 381.675781 293.25 C 379.558594 294.367188 377.339844 295.339844 374.996094 295.816406 C 373.011719 296.222656 370.558594 296.0625 369.5 294.339844 C 368.609375 292.894531 369.121094 291.035156 369.65625 289.425781 " fill-opacity="1" fill-rule="nonzero"/><path fill="#603222" d="M 292.132812 262.289062 C 290.664062 262.367188 289.332031 264.074219 288.589844 265.347656 C 287.847656 266.621094 287.589844 268.117188 287.488281 269.585938 C 287.339844 271.75 287.5 273.933594 287.960938 276.054688 C 288.285156 277.519531 288.902344 279.132812 290.296875 279.699219 C 291.390625 280.148438 292.691406 279.789062 293.605469 279.035156 C 294.515625 278.28125 295.09375 277.199219 295.523438 276.101562 C 296.382812 273.914062 296.746094 271.558594 296.824219 269.210938 C 296.867188 267.90625 296.816406 266.570312 296.378906 265.339844 C 295.941406 264.105469 295.0625 262.976562 293.84375 262.503906 C 292.625 262.027344 291.066406 262.351562 290.328125 263.429688 " fill-opacity="1" fill-rule="nonzero"/><path fill="#603222" d="M 366.082031 182.589844 C 366.234375 181.125 368.007812 179.882812 369.316406 179.203125 C 370.625 178.527344 372.136719 178.347656 373.609375 178.324219 C 375.777344 178.285156 377.949219 178.558594 380.042969 179.128906 C 381.492188 179.523438 383.070312 180.226562 383.566406 181.644531 C 383.957031 182.761719 383.527344 184.042969 382.730469 184.914062 C 381.933594 185.789062 380.824219 186.308594 379.703125 186.683594 C 377.476562 187.425781 375.101562 187.667969 372.753906 187.625 C 371.445312 187.601562 370.117188 187.488281 368.90625 186.984375 C 367.699219 186.484375 366.617188 185.546875 366.207031 184.308594 C 365.796875 183.066406 366.195312 181.527344 367.3125 180.84375 " fill-opacity="1" fill-rule="nonzero"/><path fill="#603222" d="M 357.644531 260.796875 C 357.386719 262.484375 355.382812 263.269531 353.675781 263.386719 C 347.871094 263.777344 342.5625 260.363281 337.824219 256.984375 C 318.402344 243.132812 300.207031 227.316406 285.320312 208.683594 C 289.285156 203.671875 293.617188 198.972656 298.140625 194.4375 C 299.300781 195.015625 300.417969 195.742188 301.472656 196.46875 C 324.425781 212.300781 343.578125 233.613281 356.875 258.117188 C 357.328125 258.949219 357.789062 259.863281 357.644531 260.796875 " fill-opacity="1" fill-rule="nonzero"/><path fill="#603222" d="M 344.117188 209.550781 C 344.113281 210.789062 343.394531 212.117188 342.191406 212.429688 C 341.164062 212.695312 340.109375 212.1875 339.175781 211.675781 C 327.109375 205.046875 316.746094 195.347656 309.324219 183.753906 C 310.824219 182.367188 312.328125 180.984375 313.828125 179.605469 C 315.015625 178.515625 316.203125 177.425781 317.40625 176.351562 C 317.476562 176.40625 317.542969 176.460938 317.609375 176.519531 C 327.746094 184.785156 337.117188 194.359375 343.023438 206.023438 C 343.585938 207.132812 344.125 208.308594 344.117188 209.550781 " fill-opacity="1" fill-rule="nonzero"/><path fill="#603222" d="M 298.03125 249.617188 C 297.109375 250.070312 296.003906 249.796875 295.03125 249.464844 C 285.316406 246.160156 278.148438 238.113281 271.542969 230.203125 C 273.207031 226.519531 275.257812 222.957031 277.671875 219.289062 C 278.292969 219.726562 278.878906 220.21875 279.421875 220.703125 C 287.039062 227.507812 294.707031 234.789062 298.699219 244.191406 C 299.488281 246.046875 299.847656 248.726562 298.03125 249.617188 " fill-opacity="1" fill-rule="nonzero"/><path fill="#603222" d="M 421.746094 173.375 C 421.414062 177.796875 420.195312 182.078125 417.222656 185.269531 C 416.59375 185.949219 415.808594 186.597656 414.882812 186.617188 C 412.832031 186.652344 412.109375 183.910156 412.179688 181.855469 C 412.339844 177.46875 413.121094 173.105469 414.488281 168.933594 C 416.960938 170.3125 419.378906 171.804688 421.746094 173.375 " fill-opacity="1" fill-rule="nonzero"/><path fill="#603222" d="M 434.8125 183.042969 C 434.839844 187.5625 433.414062 192.101562 430.597656 195.644531 C 430.019531 196.371094 429.3125 197.101562 428.390625 197.246094 C 427.242188 197.421875 426.125 196.578125 425.628906 195.53125 C 425.132812 194.484375 425.117188 193.273438 425.164062 192.113281 C 425.351562 187.25 426.378906 182.425781 428.175781 177.90625 C 430.421875 179.574219 432.628906 181.292969 434.8125 183.042969 " fill-opacity="1" fill-rule="nonzero"/><path fill="#603222" d="M 441.5625 188.585938 C 443.859375 190.523438 446.109375 192.53125 448.042969 194.804688 C 447.527344 198.628906 446.09375 202.328125 443.828125 205.449219 C 443.183594 206.332031 442.445312 207.199219 441.453125 207.65625 C 440.457031 208.105469 439.152344 208.035156 438.421875 207.222656 C 437.742188 206.46875 437.734375 205.347656 437.792969 204.335938 C 438.105469 198.867188 439.285156 193.445312 441.269531 188.339844 L 441.5625 188.585938 " fill-opacity="1" fill-rule="nonzero"/><path fill="#603222" d="M 300.28125 333.121094 C 300.148438 333.214844 300.007812 333.296875 299.863281 333.375 C 298.632812 331.691406 297.4375 329.984375 296.269531 328.277344 C 296.078125 327.996094 295.882812 327.714844 295.691406 327.429688 C 296.660156 327.398438 297.644531 327.488281 298.570312 327.652344 C 299.632812 327.839844 300.777344 328.148438 301.402344 329.023438 C 302.3125 330.3125 301.578125 332.226562 300.28125 333.121094 " fill-opacity="1" fill-rule="nonzero"/><path fill="#603222" d="M 311.859375 339.960938 C 311.183594 341.558594 309.84375 342.652344 308.269531 343.449219 C 306.496094 341.65625 304.820312 339.742188 303.222656 337.757812 C 305.410156 336.941406 307.785156 336.625 310.101562 336.90625 C 310.671875 336.96875 311.273438 337.089844 311.675781 337.5 C 312.289062 338.121094 312.195312 339.152344 311.859375 339.960938 " fill-opacity="1" fill-rule="nonzero"/><path fill="#603222" d="M 324.507812 347.265625 C 324.382812 348.425781 323.390625 349.269531 322.464844 349.976562 C 321.527344 350.695312 320.578125 351.40625 319.585938 352.035156 C 316.691406 350.523438 314.035156 348.65625 311.570312 346.539062 C 313.960938 345.175781 316.640625 344.328125 319.382812 344.105469 C 320.53125 344.011719 321.730469 344.03125 322.769531 344.53125 C 323.804688 345.03125 324.632812 346.121094 324.507812 347.265625 " fill-opacity="1" fill-rule="nonzero"/><path fill="#603222" d="M 625.832031 275.660156 C 625.609375 276.875 625.292969 278.074219 624.894531 279.246094 C 624.292969 280.996094 623.453125 282.738281 622 283.886719 C 620.550781 285.027344 618.371094 285.410156 616.851562 284.355469 C 615.363281 283.324219 614.9375 281.320312 614.875 279.507812 C 614.785156 276.6875 615.304688 273.851562 616.359375 271.234375 C 619.585938 272.535156 622.746094 274.015625 625.832031 275.660156 " fill-opacity="1" fill-rule="nonzero"/><path fill="#603222" d="M 638.410156 294.382812 C 638.199219 295.777344 637.460938 297.023438 636.652344 298.175781 C 636.039062 299.050781 635.332031 299.902344 634.558594 300.675781 C 632.394531 298.785156 630.179688 296.953125 627.9375 295.171875 C 628.722656 294.140625 629.589844 293.175781 630.535156 292.292969 C 632.308594 290.617188 635.070312 289.195312 637.050781 290.617188 C 638.191406 291.433594 638.617188 292.996094 638.410156 294.382812 " fill-opacity="1" fill-rule="nonzero"/><path fill="#603222" d="M 662.640625 307.226562 C 661.085938 308.722656 659.261719 309.949219 657.28125 310.808594 C 655.664062 311.511719 653.488281 311.84375 652.390625 310.46875 C 651.582031 309.460938 651.773438 307.988281 652.179688 306.757812 C 653.03125 304.183594 654.6875 301.898438 656.816406 300.222656 C 658.851562 302.492188 660.796875 304.828125 662.640625 307.226562 " fill-opacity="1" fill-rule="nonzero"/><path fill="#603222" d="M 666.816406 337.550781 C 666.121094 338.238281 665.402344 338.9375 664.628906 339.546875 C 663.507812 336.976562 662.257812 334.46875 660.890625 332.023438 C 661.128906 331.835938 661.363281 331.660156 661.605469 331.484375 C 662.785156 330.636719 664.085938 329.867188 665.535156 329.710938 C 666.976562 329.554688 668.585938 330.15625 669.242188 331.453125 C 670.300781 333.546875 668.488281 335.902344 666.816406 337.550781 " fill-opacity="1" fill-rule="nonzero"/><path fill="#603222" d="M 682.738281 346.339844 C 683.472656 348.894531 684.105469 351.480469 684.625 354.082031 C 683.957031 354.09375 683.285156 354.082031 682.617188 354.0625 C 681.164062 354.027344 679.648438 353.96875 678.375 353.265625 C 677.105469 352.558594 676.183594 350.988281 676.714844 349.632812 C 677.042969 348.789062 677.839844 348.226562 678.632812 347.789062 C 679.910156 347.085938 681.300781 346.601562 682.738281 346.339844 " fill-opacity="1" fill-rule="nonzero"/><path fill="#603222" d="M 670.59375 365.683594 C 671.992188 365.890625 673.347656 366.378906 674.546875 367.121094 C 676.59375 368.386719 678.246094 371.09375 676.953125 373.121094 C 675.988281 374.636719 673.894531 374.921875 672.105469 374.765625 C 671.488281 374.714844 670.878906 374.625 670.273438 374.503906 L 670.59375 365.683594 " fill-opacity="1" fill-rule="nonzero"/><path fill="#603222" d="M 680.351562 401.050781 C 678.9375 404.488281 677.292969 407.84375 675.429688 411.078125 C 675.367188 411.054688 675.308594 411.035156 675.253906 411.007812 C 673.328125 410.214844 671.742188 408.785156 670.304688 407.285156 C 669.046875 405.96875 667.832031 404.515625 667.328125 402.765625 C 666.820312 401.011719 667.1875 398.894531 668.640625 397.792969 C 670.367188 396.476562 672.847656 397.027344 674.847656 397.878906 C 676.800781 398.710938 678.648438 399.777344 680.351562 401.050781 " fill-opacity="1" fill-rule="nonzero"/><path fill="#fbc789" d="M 654.050781 435.742188 C 647.902344 440.53125 641.054688 444.457031 633.65625 447.265625 C 627.691406 449.53125 620.980469 451.101562 614.929688 449.054688 C 608.878906 447.011719 604.289062 440.113281 606.953125 434.488281 C 609.179688 429.789062 615.007812 428.011719 620.128906 426.464844 C 627.1875 424.324219 634.179688 421.582031 640.59375 418.019531 C 644.789062 420.1875 648.46875 423.21875 651.003906 427.183594 C 652.636719 429.738281 653.679688 432.710938 654.050781 435.742188 " fill-opacity="1" fill-rule="nonzero"/><path fill="#8e37a0" d="M 529.109375 304.78125 C 515.996094 309.191406 504.261719 317.324219 495.613281 328.128906 C 494.554688 329.449219 496.421875 331.335938 497.488281 330.003906 C 505.851562 319.550781 517.117188 311.609375 529.8125 307.339844 C 531.421875 306.796875 530.730469 304.234375 529.109375 304.78125 " fill-opacity="1" fill-rule="nonzero"/><path fill="#8e37a0" d="M 476.832031 300.886719 C 475.824219 299.53125 473.523438 300.851562 474.542969 302.222656 C 480.652344 310.421875 482.945312 321.097656 480.582031 331.0625 C 480.1875 332.722656 482.746094 333.429688 483.136719 331.769531 C 485.65625 321.160156 483.359375 309.640625 476.832031 300.886719 " fill-opacity="1" fill-rule="nonzero"/><path fill="#8e37a0" d="M 432.226562 316.988281 C 431.339844 315.535156 429.042969 316.863281 429.9375 318.324219 C 433.460938 324.082031 434.78125 331 433.515625 337.640625 C 433.199219 339.304688 435.753906 340.019531 436.074219 338.34375 C 437.472656 331.003906 436.136719 323.371094 432.226562 316.988281 " fill-opacity="1" fill-rule="nonzero"/><path fill="#a6421f" d="M 393.082031 398.992188 C 391.101562 403.71875 390.417969 408.867188 391.019531 413.867188 C 390.207031 413.085938 389.488281 412.210938 388.886719 411.269531 C 388.621094 410.851562 388.375 410.425781 388.152344 409.988281 C 388.183594 405.992188 388.96875 402.007812 390.527344 398.289062 C 391.175781 396.734375 393.738281 397.421875 393.082031 398.992188 " fill-opacity="1" fill-rule="nonzero"/><path fill="#a6421f" d="M 404.417969 416.972656 C 404.132812 417.089844 403.84375 417.203125 403.546875 417.300781 C 402.992188 417.484375 402.429688 417.621094 401.863281 417.703125 C 399.78125 411.871094 399.488281 405.457031 401.105469 399.421875 C 401.550781 397.773438 404.109375 398.476562 403.664062 400.125 C 402.164062 405.710938 402.460938 411.609375 404.417969 416.972656 " fill-opacity="1" fill-rule="nonzero"/><path fill="#a6421f" d="M 536.621094 384.15625 C 534.25 387.527344 532.734375 391.417969 532.21875 395.453125 C 531.628906 394.527344 531.160156 393.523438 530.839844 392.488281 C 530.683594 391.980469 530.554688 391.464844 530.457031 390.945312 C 531.28125 388.0625 532.578125 385.308594 534.332031 382.820312 C 535.3125 381.4375 537.609375 382.761719 536.621094 384.15625 " fill-opacity="1" fill-rule="nonzero"/><path fill="#a6421f" d="M 543.101562 400.175781 C 543.144531 395.785156 544.179688 391.421875 546.125 387.472656 C 546.875 385.945312 544.589844 384.597656 543.835938 386.132812 C 541.613281 390.644531 540.484375 395.527344 540.484375 400.480469 L 543.101562 400.175781 " fill-opacity="1" fill-rule="nonzero"/><path fill="#ef2f49" d="M 436.40625 225.132812 C 434.859375 225 433.015625 225.863281 431.882812 226.929688 C 430.746094 227.992188 429.453125 230.328125 428.792969 231.734375 C 426.585938 236.445312 425.585938 241.960938 427.265625 246.882812 C 427.753906 248.3125 428.519531 249.738281 429.820312 250.503906 C 431.539062 251.515625 433.832031 251.101562 435.453125 249.9375 C 437.074219 248.773438 438.132812 246.984375 438.972656 245.171875 C 440.410156 242.0625 441.328125 238.707031 441.679688 235.300781 C 441.925781 232.90625 441.863281 230.371094 440.714844 228.257812 C 439.570312 226.144531 437.070312 224.609375 434.746094 225.230469 C 433.464844 225.578125 432.289062 226.921875 431.371094 227.878906 " fill-opacity="1" fill-rule="nonzero"/><path fill="#ef2f49" d="M 325.984375 341.980469 C 325.796875 340.4375 326.601562 338.566406 327.628906 337.398438 C 328.65625 336.230469 330.945312 334.859375 332.332031 334.152344 C 336.96875 331.792969 342.449219 330.613281 347.425781 332.132812 C 348.871094 332.574219 350.316406 333.292969 351.125 334.566406 C 352.199219 336.25 351.859375 338.554688 350.746094 340.214844 C 349.632812 341.871094 347.882812 342.992188 346.097656 343.886719 C 343.03125 345.425781 339.714844 346.453125 336.316406 346.914062 C 333.929688 347.238281 331.394531 347.261719 329.246094 346.183594 C 327.09375 345.105469 325.480469 342.660156 326.027344 340.316406 C 326.328125 339.023438 327.632812 337.804688 328.5625 336.855469 " fill-opacity="1" fill-rule="nonzero"/><path fill="#d2b0dd" d="M 380.589844 223.796875 C 379.492188 225.847656 379.402344 227.203125 379.582031 229.308594 C 379.945312 233.53125 381.988281 237.589844 385.167969 240.394531 C 386.3125 241.40625 387.945312 242.292969 389.300781 241.589844 C 390.339844 241.046875 390.757812 239.789062 390.953125 238.636719 C 391.746094 233.984375 390.378906 229.011719 387.320312 225.414062 C 386.34375 224.265625 385.167969 223.230469 383.75 222.714844 C 383.152344 222.496094 382.496094 222.375 381.878906 222.53125 C 381.257812 222.6875 380.695312 223.167969 380.589844 223.796875 " fill-opacity="1" fill-rule="nonzero"/><path fill="#d2b0dd" d="M 329.40625 288.910156 C 331.242188 287.484375 332.5625 287.167969 334.667969 286.992188 C 338.894531 286.636719 343.238281 287.96875 346.539062 290.628906 C 347.730469 291.589844 348.875 293.046875 348.410156 294.503906 C 348.054688 295.617188 346.886719 296.242188 345.777344 296.628906 C 341.328125 298.191406 336.191406 297.679688 332.132812 295.273438 C 330.835938 294.503906 329.617188 293.519531 328.871094 292.210938 C 328.554688 291.65625 328.324219 291.027344 328.375 290.394531 C 328.425781 289.757812 328.804688 289.121094 329.40625 288.910156 " fill-opacity="1" fill-rule="nonzero"/><path fill="#a46c55" d="M 379.558594 278.617188 C 378.117188 279.648438 377.5625 280.441406 376.339844 281.726562 C 375.117188 283.011719 374.121094 284.570312 373.777344 286.3125 C 373.722656 286.585938 373.6875 286.882812 373.792969 287.148438 C 373.953125 287.53125 374.394531 287.738281 374.808594 287.738281 C 375.226562 287.738281 375.621094 287.570312 375.996094 287.390625 C 378.941406 285.988281 381.417969 283.625 382.964844 280.75 C 383.277344 280.171875 383.558594 279.492188 383.351562 278.863281 C 383.121094 278.164062 382.324219 277.769531 381.585938 277.800781 C 380.851562 277.832031 380.167969 278.199219 379.558594 278.617188 " fill-opacity="1" fill-rule="nonzero"/><path fill="#fab98e" d="M 396.84375 166.492188 C 379.136719 163.574219 360.578125 161.332031 343.136719 166.90625 C 338.625 168.347656 334.28125 170.300781 330.257812 172.804688 C 328.8125 173.703125 330.144531 176 331.597656 175.09375 C 346.167969 166.03125 363.863281 165.125 380.5 166.855469 C 385.738281 167.398438 390.945312 168.195312 396.140625 169.050781 C 397.808594 169.324219 398.527344 166.769531 396.84375 166.492188 " fill-opacity="1" fill-rule="nonzero"/><path fill="#fab98e" d="M 406.6875 169.1875 C 405.964844 168.945312 405.242188 168.707031 404.519531 168.464844 C 403.859375 168.246094 403.039062 168.71875 402.886719 169.390625 C 402.722656 170.121094 403.109375 170.785156 403.8125 171.019531 C 404.535156 171.261719 405.261719 171.5 405.984375 171.742188 C 406.644531 171.964844 407.460938 171.488281 407.613281 170.816406 C 407.78125 170.085938 407.394531 169.421875 406.6875 169.1875 " fill-opacity="1" fill-rule="nonzero"/><path fill="#956c56" d="M 391.230469 127.085938 C 381.421875 122.375 369.804688 122.457031 360.066406 127.316406 C 358.542969 128.082031 359.882812 130.367188 361.40625 129.609375 C 370.238281 125.199219 380.992188 125.101562 389.894531 129.375 C 391.425781 130.109375 392.769531 127.824219 391.230469 127.085938 " fill-opacity="1" fill-rule="nonzero"/><path fill="#d2b0dd" d="M 462.574219 269.226562 C 462.460938 268.871094 462.257812 268.558594 461.976562 268.296875 C 461.78125 268.144531 461.585938 267.996094 461.390625 267.84375 C 460.941406 267.582031 460.453125 267.449219 459.929688 267.449219 L 459.164062 267.554688 C 458.671875 267.6875 458.246094 267.9375 457.886719 268.296875 L 457.523438 268.65625 C 457.242188 268.921875 457.042969 269.230469 456.925781 269.585938 C 456.746094 269.933594 456.660156 270.304688 456.675781 270.703125 C 456.660156 271.101562 456.746094 271.472656 456.925781 271.816406 C 457.042969 272.175781 457.242188 272.484375 457.523438 272.746094 C 457.71875 272.902344 457.914062 273.050781 458.109375 273.203125 C 458.5625 273.460938 459.046875 273.59375 459.570312 273.597656 C 459.828125 273.558594 460.082031 273.527344 460.339844 273.492188 C 460.828125 273.355469 461.253906 273.109375 461.617188 272.746094 L 461.976562 272.386719 C 462.257812 272.125 462.460938 271.816406 462.574219 271.457031 C 462.757812 271.109375 462.839844 270.742188 462.824219 270.34375 C 462.839844 269.941406 462.757812 269.570312 462.574219 269.226562 " fill-opacity="1" fill-rule="nonzero"/><path fill="#d2b0dd" d="M 445.464844 296.011719 C 441.742188 296.011719 441.738281 301.796875 445.464844 301.796875 C 449.191406 301.796875 449.195312 296.011719 445.464844 296.011719 " fill-opacity="1" fill-rule="nonzero"/><path fill="#d2b0dd" d="M 423.046875 322.769531 C 419.320312 322.769531 419.316406 328.554688 423.046875 328.554688 C 426.769531 328.554688 426.773438 322.769531 423.046875 322.769531 " fill-opacity="1" fill-rule="nonzero"/><path fill="#d2b0dd" d="M 447.636719 327.109375 C 443.914062 327.109375 443.90625 332.894531 447.636719 332.894531 C 451.359375 332.894531 451.367188 327.109375 447.636719 327.109375 " fill-opacity="1" fill-rule="nonzero"/><path fill="#d2b0dd" d="M 474.757812 288.417969 C 471.035156 288.417969 471.03125 294.207031 474.757812 294.207031 C 478.480469 294.207031 478.488281 288.417969 474.757812 288.417969 " fill-opacity="1" fill-rule="nonzero"/><path fill="#d2b0dd" d="M 476.207031 319.15625 C 472.484375 319.15625 472.476562 324.941406 476.207031 324.941406 C 479.929688 324.941406 479.933594 319.15625 476.207031 319.15625 " fill-opacity="1" fill-rule="nonzero"/><path fill="#d2b0dd" d="M 458.847656 349.886719 C 455.125 349.886719 455.117188 355.671875 458.847656 355.671875 C 462.570312 355.671875 462.574219 349.886719 458.847656 349.886719 " fill-opacity="1" fill-rule="nonzero"/><path fill="#d2b0dd" d="M 430.640625 351.332031 C 429.46875 351.332031 428.664062 350.761719 428.230469 349.976562 C 429.578125 348.710938 430.816406 347.335938 431.910156 345.820312 C 434.304688 346.960938 433.875 351.332031 430.640625 351.332031 " fill-opacity="1" fill-rule="nonzero"/><path fill="#d2b0dd" d="M 429.191406 365.796875 C 425.46875 365.796875 425.464844 371.582031 429.191406 371.582031 C 432.914062 371.582031 432.921875 365.796875 429.191406 365.796875 " fill-opacity="1" fill-rule="nonzero"/><path fill="#d2b0dd" d="M 403.878906 370.496094 C 402.847656 370.496094 402.101562 370.054688 401.644531 369.417969 C 403.042969 368.105469 404.503906 366.847656 406.003906 365.652344 C 407.363281 367.289062 406.652344 370.496094 403.878906 370.496094 " fill-opacity="1" fill-rule="nonzero"/><path fill="#d2b0dd" d="M 433.601562 385.5625 C 432.121094 386.554688 430.664062 387.574219 429.25 388.625 L 429.195312 388.214844 C 429.175781 387.816406 429.261719 387.445312 429.441406 387.101562 C 429.558594 386.746094 429.757812 386.433594 430.039062 386.171875 C 430.300781 385.886719 430.613281 385.6875 430.96875 385.574219 C 431.316406 385.390625 431.6875 385.308594 432.085938 385.324219 L 432.449219 385.324219 C 432.855469 385.324219 433.238281 385.402344 433.601562 385.5625 " fill-opacity="1" fill-rule="nonzero"/><path fill="#d2b0dd" d="M 492.476562 265.640625 C 488.753906 265.640625 488.75 271.425781 492.476562 271.425781 C 496.203125 271.425781 496.207031 265.640625 492.476562 265.640625 " fill-opacity="1" fill-rule="nonzero"/><path fill="#d2b0dd" d="M 500.546875 303.9375 C 500.429688 303.582031 500.230469 303.269531 499.949219 303.007812 C 499.6875 302.722656 499.375 302.527344 499.019531 302.410156 C 498.675781 302.226562 498.300781 302.144531 497.902344 302.160156 C 497.648438 302.195312 497.390625 302.226562 497.132812 302.265625 C 496.644531 302.402344 496.21875 302.648438 495.859375 303.007812 C 495.707031 303.203125 495.558594 303.398438 495.402344 303.59375 C 495.144531 304.042969 495.011719 304.53125 495.007812 305.054688 L 495.007812 305.414062 C 494.996094 305.8125 495.078125 306.183594 495.261719 306.527344 C 495.375 306.886719 495.574219 307.199219 495.859375 307.460938 C 496.121094 307.742188 496.429688 307.941406 496.789062 308.058594 C 497.132812 308.238281 497.503906 308.320312 497.902344 308.308594 L 498.671875 308.203125 C 499.164062 308.066406 499.585938 307.816406 499.949219 307.460938 C 500.097656 307.261719 500.25 307.066406 500.402344 306.875 C 500.664062 306.421875 500.796875 305.9375 500.796875 305.414062 L 500.796875 305.054688 C 500.8125 304.65625 500.726562 304.285156 500.546875 303.9375 " fill-opacity="1" fill-rule="nonzero"/><path fill="#d2b0dd" d="M 520.078125 278.628906 C 519.957031 278.269531 519.761719 277.960938 519.476562 277.695312 C 519.214844 277.414062 518.90625 277.214844 518.542969 277.097656 C 518.199219 276.917969 517.828125 276.835938 517.433594 276.847656 C 517.175781 276.882812 516.917969 276.917969 516.664062 276.953125 C 516.171875 277.089844 515.746094 277.339844 515.382812 277.695312 C 515.234375 277.890625 515.082031 278.089844 514.933594 278.28125 C 514.671875 278.734375 514.539062 279.222656 514.539062 279.742188 L 514.539062 280.101562 C 514.523438 280.503906 514.605469 280.875 514.785156 281.21875 C 514.90625 281.578125 515.101562 281.886719 515.382812 282.148438 C 515.648438 282.433594 515.957031 282.632812 516.316406 282.746094 C 516.664062 282.929688 517.035156 283.011719 517.433594 282.996094 L 518.199219 282.894531 C 518.691406 282.757812 519.117188 282.507812 519.476562 282.148438 C 519.628906 281.953125 519.78125 281.757812 519.929688 281.5625 C 520.191406 281.113281 520.320312 280.625 520.324219 280.101562 L 520.324219 279.742188 C 520.339844 279.34375 520.257812 278.972656 520.078125 278.628906 " fill-opacity="1" fill-rule="nonzero"/><path fill="#d2b0dd" d="M 536.855469 251.492188 C 536.71875 251.003906 536.472656 250.578125 536.109375 250.21875 C 535.917969 250.066406 535.722656 249.914062 535.527344 249.765625 C 535.074219 249.503906 534.585938 249.371094 534.066406 249.371094 L 533.707031 249.371094 C 533.304688 249.355469 532.933594 249.4375 532.589844 249.617188 C 532.230469 249.738281 531.921875 249.933594 531.660156 250.21875 C 531.375 250.480469 531.175781 250.789062 531.058594 251.148438 C 530.878906 251.492188 530.796875 251.863281 530.8125 252.261719 C 530.84375 252.519531 530.878906 252.777344 530.914062 253.03125 C 531.054688 253.519531 531.300781 253.949219 531.660156 254.308594 C 531.851562 254.460938 532.050781 254.609375 532.246094 254.761719 C 532.695312 255.023438 533.183594 255.152344 533.707031 255.15625 L 534.066406 255.15625 C 534.464844 255.171875 534.835938 255.089844 535.179688 254.90625 C 535.539062 254.789062 535.847656 254.589844 536.109375 254.308594 C 536.394531 254.046875 536.59375 253.734375 536.710938 253.375 C 536.890625 253.03125 536.976562 252.660156 536.960938 252.261719 L 536.855469 251.492188 " fill-opacity="1" fill-rule="nonzero"/><path fill="#d2b0dd" d="M 538.046875 292.757812 C 534.320312 292.757812 534.316406 298.542969 538.046875 298.542969 C 541.769531 298.542969 541.773438 292.757812 538.046875 292.757812 " fill-opacity="1" fill-rule="nonzero"/><path fill="#d2b0dd" d="M 559.855469 272.117188 C 559.738281 271.761719 559.539062 271.453125 559.257812 271.1875 C 558.992188 270.90625 558.683594 270.707031 558.324219 270.589844 C 557.980469 270.410156 557.609375 270.324219 557.210938 270.34375 C 556.953125 270.375 556.695312 270.410156 556.441406 270.445312 C 555.953125 270.582031 555.527344 270.828125 555.164062 271.1875 C 555.015625 271.382812 554.863281 271.578125 554.710938 271.773438 C 554.449219 272.226562 554.320312 272.710938 554.316406 273.234375 L 554.316406 273.597656 C 554.304688 273.996094 554.386719 274.367188 554.566406 274.710938 C 554.683594 275.070312 554.882812 275.378906 555.164062 275.640625 C 555.425781 275.921875 555.738281 276.121094 556.097656 276.238281 C 556.441406 276.417969 556.8125 276.503906 557.210938 276.488281 L 557.980469 276.386719 C 558.46875 276.246094 558.894531 276 559.257812 275.640625 C 559.40625 275.445312 559.558594 275.25 559.707031 275.054688 C 559.96875 274.605469 560.101562 274.117188 560.101562 273.597656 L 560.101562 273.234375 C 560.117188 272.835938 560.035156 272.464844 559.855469 272.117188 " fill-opacity="1" fill-rule="nonzero"/><path fill="#d2b0dd" d="M 577.101562 259.132812 C 573.484375 259.132812 573.378906 253.691406 576.773438 253.363281 C 576.773438 253.363281 576.773438 253.363281 576.777344 253.363281 C 577.800781 253.992188 578.804688 254.660156 579.777344 255.359375 C 580.238281 257.03125 579.34375 259.132812 577.101562 259.132812 " fill-opacity="1" fill-rule="nonzero"/><path fill="#d2b0dd" d="M 578.804688 296.691406 C 578.667969 296.203125 578.417969 295.773438 578.0625 295.414062 C 577.863281 295.265625 577.667969 295.109375 577.476562 294.960938 C 577.023438 294.699219 576.535156 294.570312 576.015625 294.566406 L 575.65625 294.566406 C 575.253906 294.554688 574.882812 294.632812 574.539062 294.816406 C 574.179688 294.933594 573.871094 295.132812 573.609375 295.414062 C 573.324219 295.675781 573.125 295.988281 573.011719 296.34375 C 572.828125 296.691406 572.746094 297.0625 572.761719 297.460938 L 572.863281 298.230469 C 573.003906 298.71875 573.25 299.144531 573.609375 299.507812 C 573.804688 299.65625 573.996094 299.808594 574.195312 299.957031 C 574.644531 300.21875 575.128906 300.347656 575.65625 300.351562 L 576.015625 300.351562 C 576.414062 300.367188 576.785156 300.285156 577.128906 300.105469 C 577.488281 299.984375 577.800781 299.789062 578.0625 299.507812 C 578.34375 299.242188 578.542969 298.933594 578.660156 298.574219 C 578.839844 298.230469 578.921875 297.855469 578.910156 297.460938 L 578.804688 296.691406 " fill-opacity="1" fill-rule="nonzero"/><path fill="#d2b0dd" d="M 596.472656 279.246094 C 596.195312 279.332031 595.886719 279.382812 595.542969 279.382812 C 592.125 279.382812 591.84375 274.53125 594.679688 273.714844 C 595.425781 275.503906 596.03125 277.347656 596.472656 279.246094 " fill-opacity="1" fill-rule="nonzero"/><path fill="#d2b0dd" d="M 550.339844 316.625 C 546.617188 316.625 546.609375 322.410156 550.339844 322.410156 C 554.0625 322.410156 554.070312 316.625 550.339844 316.625 " fill-opacity="1" fill-rule="nonzero"/><path fill="#d2b0dd" d="M 517.433594 330 C 513.707031 330 513.703125 335.785156 517.433594 335.785156 C 521.152344 335.785156 521.160156 330 517.433594 330 " fill-opacity="1" fill-rule="nonzero"/><path fill="#d2b0dd" d="M 541.660156 342.65625 C 537.9375 342.65625 537.933594 348.441406 541.660156 348.441406 C 545.382812 348.441406 545.390625 342.65625 541.660156 342.65625 " fill-opacity="1" fill-rule="nonzero"/><path fill="#d2b0dd" d="M 583.507812 318.941406 C 582.191406 320.355469 580.808594 321.707031 579.378906 322.988281 C 577.933594 321.375 578.625 318.070312 581.441406 318.070312 C 582.355469 318.070312 583.042969 318.417969 583.507812 318.941406 " fill-opacity="1" fill-rule="nonzero"/><path fill="#d2b0dd" d="M 518.40625 356.113281 C 516.714844 355.617188 515.011719 355.15625 513.324219 354.679688 C 513.777344 353.992188 514.546875 353.503906 515.625 353.503906 C 517.367188 353.503906 518.292969 354.769531 518.40625 356.113281 " fill-opacity="1" fill-rule="nonzero"/></svg>